<svg width="725" height="366" xml:space="preserve" xmlns="http://www.w3.org/2000/svg"><g style="font-size:117.333px;line-height:1.25;stroke:#fff;stroke-width:4;stroke-miterlimit:4;stroke-dasharray:none;stroke-opacity:1"><path d="M31.504 294.97q0-12.202 5.045-21.706 5.163-9.621 14.08-15.019 9.035-5.397 20.182-5.397 14.08 0 23.7 6.57 9.622 6.571 14.08 18.422h-6.1q-3.52-9.387-11.734-14.784-8.096-5.515-19.946-5.515-9.504 0-17.248 4.576-7.744 4.459-12.203 13.024-4.459 8.448-4.459 19.83 0 11.263 4.459 19.711 4.459 8.331 12.203 12.907 7.744 4.576 17.248 4.576 11.85 0 19.946-5.397 8.213-5.515 11.733-14.902h6.102q-4.459 11.851-14.08 18.422-9.622 6.57-23.701 6.57-11.147 0-20.182-5.28-8.917-5.397-14.08-14.901-5.045-9.621-5.045-21.707zm138.101 41.067-21.12-35.083h-18.07v35.083h-5.28v-82.368h22.646q13.728 0 20.533 6.454 6.923 6.453 6.923 17.13 0 9.504-5.398 15.723-5.28 6.101-15.488 7.51l21.59 35.551zm-39.19-39.541h17.6q10.912 0 16.31-5.28 5.397-5.28 5.397-13.963 0-18.89-21.941-18.89h-17.365zm107.243 18.421h-39.072l-7.861 21.12h-5.75l30.272-80.49h5.867l30.154 80.49h-5.749zm-1.643-4.459L218.18 262.47l-17.951 47.99zm87.413 25.579h-5.28l-48.341-73.685v73.685h-5.28v-82.25h5.28l48.341 73.45v-73.45h5.28zm62.539 0L348.068 297.2v38.837h-5.28v-82.368h5.28v39.19l37.899-39.19h6.805l-40.128 41.301 40.245 41.067zm42.943.821q-7.978 0-13.962-2.816t-9.387-7.626q-3.285-4.811-3.755-10.678h5.515q.939 6.454 5.984 11.499 5.163 5.045 15.605 5.045 6.102 0 10.56-2.229 4.576-2.23 7.04-6.101 2.464-3.872 2.464-8.566 0-5.984-2.933-9.504-2.816-3.52-7.157-5.28-4.224-1.76-11.5-3.754-7.978-2.112-12.906-4.224-4.81-2.112-8.213-6.454-3.285-4.458-3.285-12.085 0-5.866 3.05-10.677 3.168-4.928 8.918-7.744 5.749-2.816 13.258-2.816 10.912 0 17.6 5.397 6.688 5.398 7.979 13.259h-5.632q-.704-3.168-3.168-6.453-2.347-3.286-6.805-5.398-4.342-2.23-10.443-2.23-8.213 0-13.845 4.577-5.632 4.459-5.632 11.968 0 5.984 2.933 9.621 2.933 3.52 7.157 5.397 4.342 1.76 11.616 3.638 8.096 2.23 12.79 4.341 4.81 1.995 8.095 6.453 3.403 4.342 3.403 11.851 0 5.515-2.933 10.443-2.934 4.928-8.683 8.096-5.632 3.05-13.728 3.05zm99.85-83.188v82.367h-5.28v-39.893h-48.106v39.893h-5.28v-82.368h5.28v38.016h48.106V253.67zm66.059 61.247h-39.072l-7.861 21.12h-5.75l30.272-80.49h5.867l30.154 80.49h-5.749zm-1.643-4.459-17.834-47.989-17.952 47.99zm70.986-56.788v4.458h-37.194v34.378h32.501v4.46h-32.501v39.071h-5.28v-82.368zm59.488 0v4.458h-23.466v77.909h-5.28v-77.91h-23.467v-4.458z" style="font-family:Poppins;-inkscape-font-specification:'Poppins weight=275';fill:#fff;stroke:#fff;stroke-width:4;stroke-miterlimit:4;stroke-dasharray:none;stroke-opacity:1" transform="translate(-15.077 16)" aria-label="CRANKSHAFT"/></g><g transform="translate(0 -46.224)"><circle cx="362.5" cy="171.224" fill="#363636" style="stroke:#444;stroke-width:7.27273;stroke-miterlimit:4;stroke-dasharray:none;stroke-opacity:1" r="116.364"/><g transform="matrix(.85566 0 0 .85566 251.404 61.497)"><g transform="translate(2.072)"><path d="M57.074 76.34 190.51 48.869l14.494 54.092-129.296 42.927z" fill="#666"/><circle cx="197.757" cy="75.914" r="22" transform="rotate(-15 197.757 75.914)" fill="#444" stroke="#666" stroke-width="12"/></g><circle cx="37.371" cy="125.047" r="30" transform="rotate(-15)" fill="#666" stroke="#666" stroke-width="12"/><path d="M200.528 180.131 67.09 207.603l-14.494-54.092 129.296-42.927z" fill="#444"/><circle cx="-11.073" cy="-189.893" r="22" transform="rotate(165)" fill="#666" stroke="#444" stroke-width="12"/><circle cx="-147.073" cy="-189.893" r="30" transform="rotate(165)" fill="#aaa" stroke="#444" stroke-width="12"/><rect x="58.851" y="54.63" width="200" height="72" rx="36" transform="rotate(15)" fill="#777"/><circle cx="222.851" cy="90.63" r="30" transform="rotate(15)" fill="#444" stroke="#777" stroke-width="12"/><circle cx="94.851" cy="90.63" r="30" transform="rotate(15)" fill="#444" stroke="#777" stroke-width="12"/><circle cx="95.057" cy="89.815" r="30" transform="rotate(15)" fill="#666" stroke="#777" stroke-width="12"/><circle cx="159.251" cy="90.252" r="30" transform="rotate(15)" fill="#aaa" stroke="#777" stroke-width="12"/></g></g></svg>