<svg width="835" height="127.34" xml:space="preserve" xmlns="http://www.w3.org/2000/svg"><g style="font-size:117.333px;line-height:1.25;stroke:#fff;stroke-width:4;stroke-miterlimit:4;stroke-dasharray:none;stroke-opacity:1"><path d="M28.927 226.76c0-7.504 1.527-15.079 5.045-21.707 3.285-6.12 8.137-11.421 14.08-15.019 6.053-3.615 13.131-5.397 20.182-5.397 8.325 0 16.825 1.876 23.7 6.57 6.487 4.43 11.314 11.07 14.08 18.422h-6.1c-2.248-5.993-6.384-11.268-11.734-14.784-5.789-3.943-12.942-5.515-19.946-5.515-6.021 0-12.064 1.513-17.248 4.576-5.228 3.01-9.417 7.674-12.203 13.024-3.194 6.052-4.459 12.988-4.459 19.83 0 6.804 1.283 13.694 4.459 19.711 2.83 5.288 7.04 9.857 12.203 12.907 5.184 3.064 11.227 4.576 17.248 4.576 6.99 0 14.13-1.52 19.946-5.397 5.337-3.583 9.476-8.882 11.733-14.902h6.102c-2.766 7.352-7.593 13.992-14.08 18.422-6.875 4.695-15.376 6.57-23.701 6.57-7.038 0-14.106-1.729-20.182-5.28-5.917-3.58-10.779-8.823-14.08-14.9-3.484-6.645-5.045-14.205-5.045-21.708zm138.101 41.066-21.12-35.083h-18.07v35.083h-5.28v-82.368h22.646c7.35 0 15.2 1.397 20.533 6.454 4.643 4.328 6.923 10.784 6.923 17.13 0 5.667-1.684 11.444-5.398 15.723-3.84 4.437-9.676 6.708-15.488 7.51l21.59 35.551zm-39.19-39.54h17.6c5.861 0 12.12-1.182 16.31-5.28 3.669-3.59 5.397-8.831 5.397-13.964 0-5.231-1.52-10.754-5.485-14.167-4.416-3.802-10.63-4.723-16.456-4.723h-17.365zm107.243 18.42h-39.072l-7.861 21.12h-5.75l30.272-80.49h5.867l30.154 80.49h-5.749zm-1.643-4.459-17.835-47.988-17.951 47.99zm87.413 25.58h-5.28L267.23 194.14v73.685h-5.28v-82.25h5.28l48.341 73.45v-73.45h5.28zm62.539 0-37.899-38.838v38.837h-5.28v-82.368h5.28v39.19l37.899-39.19h6.805l-40.128 41.301 40.245 41.067zm42.943.82c-4.786 0-9.631-.777-13.962-2.816-3.69-1.736-7.032-4.297-9.387-7.626a22.163 22.163 0 0 1-3.755-10.678h5.515c.633 4.353 2.874 8.39 5.984 11.5 4.01 3.918 9.998 5.044 15.605 5.044 3.63 0 7.313-.605 10.56-2.229 2.828-1.378 5.35-3.447 7.04-6.1 1.617-2.542 2.464-5.554 2.464-8.567 0-3.384-.766-6.903-2.933-9.504-1.873-2.34-4.379-4.153-7.157-5.28-3.725-1.551-7.609-2.687-11.5-3.754-4.38-1.159-8.742-2.439-12.906-4.224-3.221-1.414-6.043-3.685-8.213-6.454-2.519-3.417-3.285-7.839-3.285-12.085 0-3.752 1.04-7.507 3.05-10.677 2.156-3.354 5.337-5.99 8.918-7.744 4.093-2.004 8.7-2.816 13.258-2.816 6.259 0 12.73 1.467 17.6 5.397 4.11 3.317 7.123 8.049 7.979 13.26h-5.632c-.524-2.357-1.72-4.522-3.168-6.454-1.701-2.381-4.16-4.144-6.805-5.398-3.196-1.641-6.85-2.23-10.443-2.23-4.96 0-9.996 1.45-13.845 4.577-3.587 2.84-5.632 7.393-5.632 11.968 0 3.42.786 6.96 2.933 9.621a19.827 19.827 0 0 0 7.157 5.397c3.763 1.526 7.685 2.624 11.616 3.638 4.344 1.197 8.68 2.493 12.79 4.341 3.228 1.34 6.022 3.64 8.095 6.453 2.583 3.296 3.403 7.664 3.403 11.851 0 3.661-1.06 7.298-2.933 10.443-2.049 3.442-5.175 6.164-8.683 8.096-4.165 2.256-8.992 3.05-13.728 3.05zm99.85-83.188v82.367h-5.28v-39.893h-48.106v39.893h-5.28v-82.368h5.28v38.016h48.106V185.46zm66.059 61.247H553.17l-7.861 21.12h-5.75l30.272-80.49h5.867l30.154 80.49h-5.749zm-1.643-4.459-17.834-47.989-17.952 47.99zm70.986-56.788v4.458h-37.194v34.378h32.501v4.46h-32.501v39.071h-5.28v-82.368zm59.488 0v4.458h-23.466v77.91h-5.28v-77.91H668.86v-4.459z" style="font-family:Poppins;-inkscape-font-specification:'Poppins weight=275';fill:#fff;stroke:#fff;stroke-width:4;stroke-miterlimit:4;stroke-dasharray:none;stroke-opacity:1" aria-label="CRANKSHAFT" transform="translate(110.956 -162.973)"/></g><g transform="translate(-127.695 -27.178) scale(.53058)"><circle cx="362.5" cy="171.224" fill="#363636" style="stroke:#444;stroke-width:7.27273;stroke-miterlimit:4;stroke-dasharray:none;stroke-opacity:1" r="116.364"/><g transform="translate(251.404 61.497) scale(.85566)"><g transform="translate(2.072)"><path d="M57.074 76.34 190.51 48.869l14.494 54.092-129.296 42.927Z" fill="#666"/><circle cx="197.757" cy="75.914" r="22" transform="rotate(-15 197.757 75.914)" fill="#444" stroke="#666" stroke-width="12"/></g><circle cx="37.371" cy="125.047" r="30" transform="rotate(-15)" fill="#666" stroke="#666" stroke-width="12"/><path d="M200.528 180.131 67.09 207.603l-14.494-54.092 129.296-42.927Z" fill="#444"/><circle cx="-11.073" cy="-189.893" r="22" transform="rotate(165)" fill="#666" stroke="#444" stroke-width="12"/><circle cx="-147.073" cy="-189.893" r="30" transform="rotate(165)" fill="#aaa" stroke="#444" stroke-width="12"/><rect x="58.851" y="54.63" width="200" height="72" rx="36" transform="rotate(15)" fill="#777"/><circle cx="222.851" cy="90.63" r="30" transform="rotate(15)" fill="#444" stroke="#777" stroke-width="12"/><circle cx="94.851" cy="90.63" r="30" transform="rotate(15)" fill="#444" stroke="#777" stroke-width="12"/><circle cx="95.057" cy="89.815" r="30" transform="rotate(15)" fill="#666" stroke="#777" stroke-width="12"/><circle cx="159.251" cy="90.252" r="30" transform="rotate(15)" fill="#aaa" stroke="#777" stroke-width="12"/></g></g></svg>