<svg width="270" height="270" fill="none" xmlns="http://www.w3.org/2000/svg"><g transform="translate(2 2)"><circle cx="133" cy="133" fill="#363636" style="stroke:#444;stroke-width:8;stroke-miterlimit:4;stroke-dasharray:none;stroke-opacity:1" r="128"/><g transform="translate(10.794 12.301) scale(.94123)"><g transform="translate(2.072)"><path d="M57.074 76.34 190.51 48.869l14.494 54.092-129.296 42.927z" fill="#666"/><circle cx="197.757" cy="75.914" r="22" transform="rotate(-15 197.757 75.914)" fill="#444" stroke="#666" stroke-width="12"/></g><circle cx="37.371" cy="125.047" r="30" transform="rotate(-15)" fill="#666" stroke="#666" stroke-width="12"/><path d="M200.528 180.131 67.09 207.603l-14.494-54.092 129.296-42.927z" fill="#444"/><circle cx="-11.073" cy="-189.893" r="22" transform="rotate(165)" fill="#666" stroke="#444" stroke-width="12"/><circle cx="-147.073" cy="-189.893" r="30" transform="rotate(165)" fill="#aaa" stroke="#444" stroke-width="12"/><rect x="58.851" y="54.63" width="200" height="72" rx="36" transform="rotate(15)" fill="#777"/><circle cx="222.851" cy="90.63" r="30" transform="rotate(15)" fill="#444" stroke="#777" stroke-width="12"/><circle cx="94.851" cy="90.63" r="30" transform="rotate(15)" fill="#444" stroke="#777" stroke-width="12"/><circle cx="95.057" cy="89.815" r="30" transform="rotate(15)" fill="#666" stroke="#777" stroke-width="12"/><circle cx="159.251" cy="90.252" r="30" transform="rotate(15)" fill="#aaa" stroke="#777" stroke-width="12"/></g></g></svg>