<svg xmlns="http://www.w3.org/2000/svg" width="250" height="250" xml:space="preserve"><circle style="stroke:#666;stroke-width:8;stroke-dasharray:none;stroke-linecap:butt;stroke-dashoffset:0;stroke-linejoin:miter;stroke-miterlimit:4;fill:#999;fill-rule:nonzero;opacity:1" r="124" transform="matrix(.94 0 0 .94 125.32 125.32)"/><g><path style="stroke:none;stroke-width:1;stroke-dasharray:none;stroke-linecap:butt;stroke-dashoffset:0;stroke-linejoin:miter;stroke-miterlimit:4;fill:#444;fill-rule:nonzero;opacity:1" transform="matrix(1.01 0 0 1.01 -3.758 19.304)" d="m46.785 96 107.923-53.072 28 48.498-99.923 66.928-36-62.354z"/><circle style="stroke:#444;stroke-width:12;stroke-dasharray:none;stroke-linecap:butt;stroke-dashoffset:0;stroke-linejoin:miter;stroke-miterlimit:4;fill:#999;fill-rule:nonzero;opacity:1" r="22" transform="matrix(.88 -.5 .5 .88 166.66 87.155)"/><circle style="stroke:#444;stroke-width:12;stroke-dasharray:none;stroke-linecap:butt;stroke-dashoffset:0;stroke-linejoin:miter;stroke-miterlimit:4;fill:#999;fill-rule:nonzero;opacity:1" r="30" transform="matrix(.88 -.5 .5 .88 61.7 147.755)"/><path style="stroke:none;stroke-width:1;stroke-dasharray:none;stroke-linecap:butt;stroke-dashoffset:0;stroke-linejoin:miter;stroke-miterlimit:4;fill:#666;fill-rule:nonzero;opacity:1" transform="matrix(1.01 0 0 1.01 -3.748 19.304)" d="m64 92 136 8v56l-136 8V92z"/><circle style="stroke:#666;stroke-width:12;stroke-dasharray:none;stroke-linecap:butt;stroke-dashoffset:0;stroke-linejoin:miter;stroke-miterlimit:4;fill:#444;fill-rule:nonzero;opacity:1" r="22" transform="matrix(1.01 0 0 1.01 198.252 148.584)"/><circle style="stroke:#666;stroke-width:12;stroke-dasharray:none;stroke-linecap:butt;stroke-dashoffset:0;stroke-linejoin:miter;stroke-miterlimit:4;fill:#444;fill-rule:nonzero;opacity:1" r="30" transform="matrix(1.01 0 0 1.01 60.892 148.584)"/></g></svg>