<svg xmlns="http://www.w3.org/2000/svg" width="794.079" height="794.079" viewBox="0 0 210.1 210.1"><circle style="fill:#888;fill-opacity:1;stroke:#9b9b9b;stroke-width:6.11659;stroke-linecap:round;stroke-miterlimit:4;stroke-dasharray:none;stroke-opacity:1" cx="105.05" cy="105.05" r="101.992"/><path style="fill:#292929;fill-opacity:1;stroke:#9b9b9b;stroke-width:0;stroke-linecap:round;stroke-miterlimit:4;stroke-dasharray:none;stroke-opacity:1" d="m37.788 85.96.03.143a35 35 0 0 0-.653.228 35 35 0 0 0-17.067 46.462A35 35 0 0 0 66.56 149.86a35 35 0 0 0 2.767-1.45l102.41-47.386a25.985 25.985 0 0 0 2.227-.894 25.985 25.985 0 0 0 12.671-34.494 25.985 25.985 0 0 0-34.494-12.67 25.985 25.985 0 0 0-1.711 1.042L45.193 83.859a35 35 0 0 0-5.032 1.428z"/><path style="fill:#4a4a4a;fill-opacity:1;stroke:#9b9b9b;stroke-width:0;stroke-linecap:round;stroke-miterlimit:4;stroke-dasharray:none;stroke-opacity:1" d="m51.525 83.263-.033.143a35 35 0 0 0-.688-.067 35 35 0 0 0-35 35 35 35 0 0 0 35 35 35 35 0 0 0 3.12-.155h112.842a25.985 25.985 0 0 0 2.396.123 25.985 25.985 0 0 0 25.985-25.984 25.985 25.985 0 0 0-25.985-25.984 25.985 25.985 0 0 0-1.99.227l-108.044-17.1a35 35 0 0 0-5.167-.817z"/><ellipse style="fill:#292929;fill-opacity:1;stroke:#9b9b9b;stroke-width:0;stroke-linecap:round;stroke-miterlimit:4;stroke-dasharray:none;stroke-opacity:1" cx="45.803" cy="118.53" rx="20" ry="20.267"/><ellipse style="fill:#292929;fill-opacity:1;stroke:#9b9b9b;stroke-width:0;stroke-linecap:round;stroke-miterlimit:4;stroke-dasharray:none;stroke-opacity:1" cx="170.998" cy="128.856" rx="10.189" ry="10.325"/><ellipse style="fill:#888;fill-opacity:1;stroke:#9b9b9b;stroke-width:0;stroke-linecap:round;stroke-miterlimit:4;stroke-dasharray:none;stroke-opacity:1" cx="165.225" cy="77.248" rx="10.189" ry="10.325"/></svg>